<svg width="24" height="24" viewBox="0 0 24 24" fill="none" xmlns="http://www.w3.org/2000/svg">
<path fill-rule="evenodd" clip-rule="evenodd" d="M20.9999 12.2042C20.9999 11.566 20.9415 10.9524 20.8329 10.3633H12.1836V13.8446H17.1261C16.9132 14.9696 16.2662 15.9228 15.2935 16.561V18.8192H18.2615C19.9981 17.2524 20.9999 14.9451 20.9999 12.2042Z" fill="#4285F4"/>
<path fill-rule="evenodd" clip-rule="evenodd" d="M12.1834 21.0009C14.663 21.0009 16.7419 20.195 18.2613 18.8205L15.2934 16.5623C14.471 17.1023 13.419 17.4214 12.1834 17.4214C9.7915 17.4214 7.76691 15.8382 7.04474 13.7109H3.97656V16.0428C5.48769 18.9841 8.59345 21.0009 12.1834 21.0009Z" fill="#34A853"/>
<path fill-rule="evenodd" clip-rule="evenodd" d="M7.04499 13.7108C6.86132 13.1708 6.75696 12.594 6.75696 12.0008C6.75696 11.4076 6.86132 10.8308 7.04499 10.2908V7.95898H3.97681C3.35482 9.17398 3 10.5485 3 12.0008C3 13.4531 3.35482 14.8276 3.97681 16.0426L7.04499 13.7108Z" fill="#FBBC05"/>
<path fill-rule="evenodd" clip-rule="evenodd" d="M12.1834 6.57954C13.5318 6.57954 14.7423 7.03363 15.6941 7.92545L18.3281 5.34409C16.7377 3.89182 14.6588 3 12.1834 3C8.59345 3 5.48769 5.01682 3.97656 7.95818L7.04474 10.29C7.76691 8.16272 9.7915 6.57954 12.1834 6.57954Z" fill="#EA4335"/>
</svg>
